<?xml version="1.0" encoding="UTF-8"?>
<svg enable-background="new 0 0 512 512" version="1.1" viewBox="0 0 512 512" xml:space="preserve" xmlns="http://www.w3.org/2000/svg">
		<g fill="#6eff00">
			<circle cx="255.98" cy="492" r="20"/>
			<path d="m412.98 155.78c-0.658-86.01-70.832-155.78-157-155.78-86.57 0-157 70.43-157 157 0 11.046 8.954 20 20 20s20-8.954 20-20c0-64.514 52.486-117 117-117s117 52.486 117 117c0 0.356 9e-3 0.71 0.028 1.062-0.405 46.562-28.227 88.348-71.12 106.66-40.038 17.094-65.908 56.675-65.908 100.84v46.438c0 11.046 8.954 20 20 20s20-8.954 20-20v-46.438c0-28.117 16.334-53.258 41.614-64.051 57.979-24.754 95.433-81.479 95.418-144.52 0-0.41-0.013-0.816-0.037-1.22z"/>
		</g>
</svg>
