<svg fill="none" height="800" viewBox="0 0 24 24" width="800" xmlns="http://www.w3.org/2000/svg"><g stroke="#292d32" stroke-linecap="round" stroke-linejoin="round" stroke-width="1.5"><g stroke-miterlimit="10"><path d="m17.2004 21.9999c2.6509 0 4.8-2.149 4.8-4.8s-2.1491-4.8-4.8-4.8c-2.651 0-4.8 2.149-4.8 4.8s2.149 4.8 4.8 4.8z"/><path d="m18.9902 17.2598h-3.58"/><path d="m17.1992 15.5098v3.5899"/></g><path d="m22 8.69012c0 1.96998-.51 3.70998-1.31 5.21998-.88-.93-2.12-1.51-3.49-1.51-2.65 0-4.8 2.15-4.8 4.8 0 1.23.47 2.35 1.23 3.2-.37.17-.71.31-1.01.41-.34.12-.9.12-1.24 0-2.9-.99-9.38-5.12-9.38-12.11998 0-3.09 2.49-5.59002 5.56-5.59002 1.81 0 3.43.88004 4.44 2.23004 1.01-1.35 2.63-2.23004 4.44-2.23004 3.07 0 5.56 2.50002 5.56 5.59002z" opacity=".4"/></g></svg>